<svg width="45" height="10" viewBox="0 0 45 10" fill="none" xmlns="http://www.w3.org/2000/svg">
<path d="M0 0H5.96136V1.87577H2.25634V4.48247H5.96136V6.31682H2.25634V9.65445H0V0ZM7.18703 3.00658H9.31821V4.39963C9.42954 3.92091 9.65727 3.55344 10.0007 3.29621C10.3529 3.02929 10.7439 2.89634 11.1707 2.89634C11.3937 2.89634 11.5796 2.91504 11.7277 2.95146V4.91008C11.5152 4.88469 11.3013 4.87099 11.087 4.86865C10.502 4.86865 10.0614 5.05673 9.76388 5.43389C9.46733 5.80169 9.31821 6.35323 9.31821 7.08918V9.65445H7.18804V3.00658H7.18703ZM15.092 9.83385C14.4422 9.83385 13.8754 9.68185 13.3926 9.37852C12.919 9.07519 12.5425 8.64458 12.3063 8.13714C12.0556 7.6043 11.9295 7.00132 11.9295 6.33052C11.9295 5.6684 12.0604 5.07043 12.3201 4.53759C12.5637 4.0228 12.9504 3.58752 13.4345 3.28251C13.926 2.97918 14.4881 2.82718 15.12 2.82718C15.5933 2.82718 16.0164 2.92874 16.3875 3.13085C16.7586 3.33363 17.0373 3.60956 17.2232 3.95833V3.00658H19.3402V9.65445H17.2232V8.7164C17.0373 9.04746 16.7495 9.31839 16.3595 9.53018C15.9695 9.73496 15.5336 9.83919 15.092 9.83385ZM15.705 8.08201C16.2154 8.08201 16.6102 7.91665 16.8888 7.5856C17.1675 7.25454 17.3068 6.83596 17.3068 6.33052C17.3068 5.8341 17.1675 5.42019 16.8888 5.08913C16.6102 4.75808 16.2154 4.59271 15.705 4.59271C15.2215 4.59271 14.8322 4.7534 14.535 5.07544C14.2472 5.39747 14.1032 5.81539 14.1032 6.33052C14.1032 6.84564 14.2472 7.26823 14.535 7.59929C14.8322 7.92133 15.2222 8.08201 15.705 8.08201ZM20.8307 3.00658H22.9619V3.97202C23.111 3.63128 23.3519 3.35534 23.6859 3.14455C24.03 2.93375 24.4291 2.82718 24.8839 2.82718C25.9425 2.82718 26.6439 3.23608 26.987 4.05487C27.176 3.68373 27.4715 3.37672 27.8369 3.17227C28.2276 2.93943 28.6763 2.82017 29.1321 2.82718C30.7201 2.82718 31.5139 3.72782 31.5139 5.53043V9.65445H29.3689V5.91661C29.3689 5.46663 29.2852 5.13557 29.1182 4.92377C28.9509 4.71264 28.7002 4.60641 28.3659 4.60641C28.0039 4.60641 27.7252 4.73068 27.5302 4.97889C27.3352 5.21808 27.2377 5.636 27.2377 6.23397V9.65445H25.0927V5.90291C25.0927 5.45259 25.0094 5.12588 24.842 4.92377C24.6848 4.71264 24.4382 4.60641 24.1045 4.60641C23.7328 4.60641 23.4494 4.73068 23.2544 4.97889C23.0594 5.21808 22.9619 5.636 22.9619 6.23397V9.65445H20.8314V3.00658H20.8307ZM39.5197 5.98576C39.5197 6.27038 39.5008 6.57873 39.4631 6.90978H34.5054C34.5243 7.34206 34.6724 7.67245 34.951 7.90296C35.2297 8.13246 35.6066 8.24771 36.0792 8.24771C36.7388 8.24771 37.1568 8.04961 37.3329 7.65441H39.4222C39.3197 8.30751 38.9577 8.83566 38.3356 9.24055C37.7229 9.63575 36.9706 9.83385 36.0792 9.83385C34.9281 9.83385 34.0226 9.52551 33.363 8.90949C32.7133 8.29314 32.388 7.43393 32.388 6.33052C32.388 5.61328 32.5365 4.99259 32.8337 4.46844C33.1208 3.94496 33.5634 3.52137 34.1012 3.25479C34.6494 2.97016 35.2854 2.82718 36.0104 2.82718C36.6969 2.82718 37.3049 2.96048 37.8342 3.22739C38.3727 3.49431 38.7863 3.86646 39.0737 4.3445C39.3713 4.82322 39.5197 5.37008 39.5197 5.98576ZM37.4155 5.59958C37.4064 5.15828 37.2813 4.82222 37.0394 4.59271C36.7985 4.36321 36.4497 4.24796 35.9949 4.24796C35.5401 4.24796 35.1781 4.3719 34.9085 4.62044C34.6488 4.85963 34.5141 5.18568 34.5044 5.59958H37.4155ZM40.4593 3.00658H42.5905V4.39963C42.7018 3.92091 42.9295 3.55344 43.273 3.29621C43.6063 3.03631 44.0186 2.89533 44.443 2.89634C44.6657 2.89634 44.8519 2.91504 45 2.95146V4.91008C44.7875 4.88469 44.5736 4.87099 44.3593 4.86865C43.7743 4.86865 43.3337 5.05673 43.0362 5.43389C42.7386 5.80169 42.5905 6.35323 42.5905 7.08918V9.65445H40.4593V3.00658Z" fill="black"/>
</svg>
