<svg width="69" height="23" viewBox="0 0 69 23" fill="none" xmlns="http://www.w3.org/2000/svg">
<g clip-path="url(#clip0_93_56)">
<path d="M0.5 0.5H15.2156V7.78567H7.8578L0.5 0.5ZM0.5 7.78567H7.8578L15.2156 15.0713H0.5V7.78567ZM0.5 15.0713H7.8578V22.357L0.5 15.0713Z" fill="black"/>
<path d="M23.5187 6.24756H29.467V8.11923H25.7701V10.7202H29.467V12.5506H25.7701V15.8809H23.5187V6.24756ZM30.69 9.24756H32.8165V10.6376C32.9276 10.1599 33.1548 9.79323 33.4975 9.53656C33.849 9.27023 34.2391 9.13756 34.665 9.13756C34.8875 9.13756 35.073 9.15622 35.2207 9.19256V11.1469C35.0087 11.1216 34.7952 11.1079 34.5815 11.1056C33.9977 11.1056 33.5581 11.2932 33.2612 11.6696C32.9653 12.0366 32.8165 12.5869 32.8165 13.3212V15.8809H30.691V9.24756H30.69ZM38.5777 16.0599C37.9293 16.0599 37.3637 15.9082 36.882 15.6056C36.4094 15.3029 36.0337 14.8732 35.7981 14.3669C35.5479 13.8352 35.422 13.2336 35.422 12.5642C35.422 11.9036 35.5527 11.3069 35.8119 10.7752C36.0549 10.2616 36.4407 9.82723 36.9238 9.52289C37.4142 9.22023 37.9751 9.06856 38.6056 9.06856C39.0779 9.06856 39.5 9.16989 39.8703 9.37156C40.2406 9.57389 40.5187 9.84922 40.7042 10.1972V9.24756H42.8165V15.8809H40.7042V14.9449C40.5187 15.2752 40.2315 15.5456 39.8424 15.7569C39.4532 15.9612 39.0183 16.0652 38.5777 16.0599ZM39.1893 14.3119C39.6986 14.3119 40.0925 14.1469 40.3706 13.8166C40.6486 13.4862 40.7877 13.0686 40.7877 12.5642C40.7877 12.0689 40.6486 11.6559 40.3706 11.3256C40.0925 10.9952 39.6986 10.8302 39.1893 10.8302C38.7069 10.8302 38.3184 10.9906 38.0219 11.3119C37.7347 11.6332 37.591 12.0502 37.591 12.5642C37.591 13.0782 37.7347 13.4999 38.0219 13.8302C38.3184 14.1516 38.7076 14.3119 39.1893 14.3119ZM44.3038 9.24756H46.4303V10.2109C46.5791 9.87089 46.8195 9.59556 47.1527 9.38523C47.4961 9.17489 47.8943 9.06856 48.3481 9.06856C49.4045 9.06856 50.1043 9.47656 50.4467 10.2936C50.6352 9.92323 50.9301 9.61689 51.2947 9.41289C51.6845 9.18056 52.1322 9.06156 52.587 9.06856C54.1715 9.06856 54.9636 9.96723 54.9636 11.7659V15.8809H52.8233V12.1512C52.8233 11.7022 52.7398 11.3719 52.5732 11.1606C52.4062 10.9499 52.1561 10.8439 51.8225 10.8439C51.4613 10.8439 51.1832 10.9679 50.9887 11.2156C50.7941 11.4542 50.6968 11.8712 50.6968 12.4679V15.8809H48.5565V12.1376C48.5565 11.6882 48.4733 11.3622 48.3064 11.1606C48.1495 10.9499 47.9034 10.8439 47.5705 10.8439C47.1995 10.8439 46.9167 10.9679 46.7222 11.2156C46.5276 11.4542 46.4303 11.8712 46.4303 12.4679V15.8809H44.3045V9.24756H44.3038ZM62.952 12.2202C62.952 12.5042 62.9331 12.8119 62.8954 13.1422H57.9486C57.9674 13.5736 58.1152 13.9032 58.3933 14.1332C58.6713 14.3622 59.0473 14.4772 59.519 14.4772C60.1771 14.4772 60.5942 14.2796 60.7699 13.8852H62.8547C62.7523 14.5369 62.3911 15.0639 61.7704 15.4679C61.159 15.8622 60.4083 16.0599 59.519 16.0599C58.3704 16.0599 57.4668 15.7522 56.8087 15.1376C56.1604 14.5226 55.8359 13.6652 55.8359 12.5642C55.8359 11.8486 55.984 11.2292 56.2805 10.7062C56.567 10.1839 57.0087 9.76122 57.5453 9.49523C58.0923 9.21123 58.7269 9.06856 59.4503 9.06856C60.1353 9.06856 60.7419 9.20156 61.2701 9.46789C61.8074 9.73422 62.2201 10.1056 62.5069 10.5826C62.8038 11.0602 62.952 11.6059 62.952 12.2202ZM60.8524 11.8349C60.8433 11.3946 60.7184 11.0592 60.477 10.8302C60.2367 10.6012 59.8886 10.4862 59.4348 10.4862C58.981 10.4862 58.6198 10.6099 58.3508 10.8579C58.0916 11.0966 57.9573 11.4219 57.9476 11.8349H60.8524ZM63.8895 9.24756H66.016V10.6376C66.1271 10.1599 66.3543 9.79323 66.697 9.53656C67.0296 9.27723 67.441 9.13656 67.8644 9.13756C68.0866 9.13756 68.2724 9.15622 68.4202 9.19256V11.1469C68.2081 11.1216 67.9947 11.1079 67.781 11.1056C67.1972 11.1056 66.7576 11.2932 66.4607 11.6696C66.1638 12.0366 66.016 12.5869 66.016 13.3212V15.8809H63.8895V9.24756Z" fill="black"/>
</g>
<defs>
<clipPath id="clip0_93_56">
<rect width="68" height="22" fill="white" transform="translate(0.5 0.5)"/>
</clipPath>
</defs>
</svg>
